<svg xmlns="http://www.w3.org/2000/svg" viewBox="0 0 288 288"><path fill="none" d="M0 0h288v288H0z"/><path d="M87 174.74a39 39 0 0 1 0-78h1a39 39 0 0 1 70.1-13.1 34.48 34.48 0 0 1 44.27 22.22c1-.09 2-.15 3.08-.15a34.5 34.5 0 1 1-18.78 63.45l-7.51 5.55z" fill="#d3eef4"/><path d="M240 140.24a34.23 34.23 0 0 0-.59-6.37c0-.2-.07-.39-.11-.58s-.1-.48-.16-.72-.15-.63-.23-.95-.11-.42-.17-.64a34.51 34.51 0 0 0-33.24-25.24c-1 0-2.07.05-3.09.14A34.49 34.49 0 0 0 149 88.5a33 33 0 0 0-52.48 20.43 34.13 34.13 0 0 0-3.52-.19 33 33 0 1 0 0 66h86.21l7.51-5.55A34.51 34.51 0 0 0 240 140.24z" fill="#bde6ee"/><path d="M144 145c-23.59 0-42.72-3.3-42.72-7.36v79.54c0 4.07 19.13 7.37 42.72 7.37s42.72-3.3 42.72-7.37v-79.59c.03 4.06-19.09 7.41-42.72 7.41z" fill="#f80000"/><path d="M101.31 137.59v79.54c0 4.07 19.13 7.37 42.72 7.37V145c-23.59 0-42.72-3.35-42.72-7.41zm79.55 3.73v79.55c3.74-1.1 5.89-2.37 5.89-3.74v-79.54c0 1.41-2.14 2.64-5.89 3.73z" fill="#d90000"/><ellipse cx="144.03" cy="137.59" rx="42.72" ry="7.37" fill="#ba0000"/><path d="M101.31 187.67c0 4.07 19.13 7.37 42.72 7.37s42.72-3.3 42.72-7.37v5.89c0 4.07-19.12 7.37-42.72 7.37s-42.72-3.3-42.72-7.37zm85.44-26.51c0 4.06-19.12 7.36-42.72 7.36s-42.72-3.3-42.72-7.36v5.89c0 4.07 19.13 7.36 42.72 7.36s42.72-3.29 42.72-7.36z" fill="#9b0000"/><path d="M171 140.24a34.5 34.5 0 1 0 34.5-34.5 34.5 34.5 0 0 0-34.5 34.5z" fill="#00758f"/><path d="M216.22 150.55l-7.92-21.23a.88.88 0 0 0-.83-.58h-3a.89.89 0 0 0-.82.55l-8.82 21.23a.88.88 0 0 0 .82 1.22h3.92a.89.89 0 0 0 .84-.58l1.23-3.46h7.59l1.15 3.44a.88.88 0 0 0 .84.6h4.19a.89.89 0 0 0 .81-1.19zm-13.06-7.09l2.36-6.63 2.2 6.63zm24.63 5.8l-8.88-8.88a.91.91 0 0 1 0-1.29l1.19-1.19a.93.93 0 0 1 1.29 0l5 5 .07-1.75v-.89a21 21 0 0 0-21-21 21.07 21.07 0 0 0-16.67 8.26l-2.5-2.5A24.47 24.47 0 0 1 230 140.24v1.86l4.2-4.2a.92.92 0 0 1 1.29 0l1.19 1.19a.91.91 0 0 1 0 1.29zm-53.45-7.86a.91.91 0 0 1 0-1.29l8.87-8.88 8.88 8.88a.91.91 0 0 1 0 1.29l-1.19 1.19a.91.91 0 0 1-1.29 0l-5-5-.07 1.75v.88a21 21 0 0 0 21 21 21 21 0 0 0 16.63-8.22l2.5 2.51A24.47 24.47 0 0 1 181 140.25v-1.86l-4.2 4.2a.91.91 0 0 1-1.29 0z" fill="#fff"/></svg>