<svg xmlns="http://www.w3.org/2000/svg" version="1.1" id="Icons" x="0" y="0" width="50" height="50" viewBox="90 89 110 110" xml:space="preserve"><style>.st0{fill:#f80000}</style><path class="st0" d="M121.7 161.3c3.8 4.9 9.4 8.9 16 10.4-2.6-3-4.8-6.6-6.4-10.4h-9.6zm21.1 11.1v-11.2h-8.1c2 4.5 4.8 8.3 8.1 11.2zm-9.4-14.2h9.4v-12.5h-11.7c.1 4.4 1 8.6 2.3 12.5zm27.3-15.6h8.6c.5-1.4 1.6-2.5 3-3-.5-3.4-1.6-6.6-3.3-9.5h-10.5c1.3 3.8 2 8.1 2.2 12.5zm6.2-15.7c-3.8-4.9-9.4-8.9-16-10.4 2.6 3 4.8 6.6 6.4 10.4h9.6zm-35.8 15.7h11.7V130h-9.4c-1.3 3.9-2.2 8.2-2.3 12.6z"/><circle class="st0" cx="144.5" cy="186.8" r="1.5"/><path class="st0" d="M137.8 116.5c-6.6 1.5-12.3 5.5-16 10.4h9.6c1.6-3.8 3.8-7.4 6.4-10.4zm-19.1 26.1h9.3c.1-4.4.9-8.6 2.2-12.5h-10.5c-1.7 3-2.8 6.3-3.3 9.8 1 .6 1.9 1.5 2.3 2.7zm-4.6-.1c-.9 0-1.6.7-1.6 1.6 0 .9.7 1.6 1.6 1.6.9 0 1.6-.7 1.6-1.6.1-.9-.7-1.6-1.6-1.6zm13.9 3.1h-9.4c-.4 1.2-1.2 2.1-2.3 2.7.5 3.5 1.6 6.9 3.3 9.8h10.5c-1.2-3.8-1.9-8.1-2.1-12.5zm6.7-18.7h8.1v-11.2c-3.3 3-6.1 6.8-8.1 11.2z"/><path class="st0" d="M145.2 89.4c-30.2 0-54.7 24.5-54.7 54.7 0 30.2 24.5 54.7 54.7 54.7 30.2 0 54.7-24.5 54.7-54.7 0-30.2-24.5-54.7-54.7-54.7zm-.7 102.1c-2.1 0-3.8-1.4-4.4-3.3-22.4-2.2-40-21.1-40-44.1h3.2c0 21.2 16.2 38.8 36.9 40.9.7-1.7 2.4-2.9 4.3-2.9 2.6 0 4.7 2.1 4.7 4.7s-2.1 4.7-4.7 4.7zm30.9-42.9c-2.2 15.2-15.2 26.9-31 26.9s-28.8-11.6-31-26.7c-2.3-.4-4.1-2.3-4.1-4.7 0-2.4 1.8-4.3 4.1-4.7 2.3-15.1 15.3-26.7 31-26.7 15.8 0 28.9 11.7 31 26.9 1.9.7 3.2 2.4 3.2 4.5.1 2.1-1.3 3.8-3.2 4.5zm-26.7-45.4c-.7 1.7-2.4 2.9-4.3 2.9-2.6 0-4.7-2.1-4.7-4.7s2.1-4.7 4.7-4.7c2.1 0 3.8 1.4 4.4 3.3 22.4 2.2 40 21.1 40 44.1h-3.2c0-21.2-16.2-38.8-36.9-40.9z"/><path class="st0" d="M169.3 145.6h-8.6c-.1 4.4-.9 8.6-2.2 12.5H169c1.7-2.9 2.7-6.1 3.3-9.5-1.4-.5-2.5-1.6-3-3zm4.5-3.1c-.9 0-1.6.7-1.6 1.6 0 .9.7 1.6 1.6 1.6.9 0 1.6-.7 1.6-1.6 0-.9-.7-1.6-1.6-1.6z"/><circle class="st0" cx="144.4" cy="101.4" r="1.5"/><path class="st0" d="M157.6 145.6h-11.7v12.5h9.4c1.3-3.8 2.1-8 2.3-12.5zm-2.4-15.6h-9.4v12.5h11.7c-.1-4.3-.9-8.6-2.3-12.5zm-9.3-14.2V127h8.1c-2-4.5-4.8-8.3-8.1-11.2zm0 45.5v11.2c3.3-3 6.1-6.8 8.1-11.2h-8.1zm5 10.4c6.6-1.5 12.3-5.5 16-10.4h-9.6c-1.6 3.8-3.8 7.4-6.4 10.4z"/></svg>