<svg xmlns="http://www.w3.org/2000/svg" version="1.1" id="Icons" x="0" y="0" width="50" height="35" viewBox="86 104 115 80" xml:space="preserve"><style>.st0{fill:#f80000}</style><path class="st0" d="M126.4 146.3c0 1.4.8 2.8 2.4 2.8.9 0 1.9-.7 2.4-2v-2.3c-.7-.9-1.6-1.3-2.4-1.3-1.7-.1-2.4 1.4-2.4 2.8z"/><path class="st0" d="M160.2 125H86.7v7.6l34.7 35.2c2 2.1 4.7 3.2 7.6 3.2 2.9 0 5.6-1.1 7.6-3.2l29.6-30c-3.2-3.4-5.4-7.8-6-12.8zm-25.1 27.2c-1.2 0-2.6-.5-3.4-2.3-.7 1.1-2.1 1.8-3.5 1.8-2.8 0-4.7-2.4-4.7-5.3 0-2.6 1.7-5.4 4.7-5.4 1 0 2.2.5 2.9 1.2v-.5c0-.3.2-.5.5-.5h1.9c.3 0 .5.2.5.5v4.4c0 2.5.4 3.3 1.2 3.3 1.3 0 1.9-2 1.9-3.6 0-4.8-3-7.7-8.1-7.7-4.4 0-7.9 3.5-7.9 8.1 0 4.5 3.4 8.1 7.8 8.1 1.1 0 2.2-.2 3.3-.7.2-.1.5 0 .6.2l.9 1.7c.1.2 0 .5-.2.6-1.5.7-3.1 1-4.6 1-6.1 0-11-5-11-11 0-6.2 5-11 11.1-11 6.4 0 11.3 4.2 11.3 10.4-.1 3.5-1.7 6.7-5.2 6.7zm34.1-47.5h-62.5v5.5h57.1c1.5-2.2 3.3-4 5.4-5.5zm17 39.5V165h5.5v-22.7c-1.7.9-3.5 1.5-5.5 1.9zm-10.2-.5v31.5h5.5v-30.6c-1.9-.1-3.7-.4-5.5-.9zm-14.6-28.8h-65v5.5h63.7c.2-1.9.7-3.8 1.3-5.5z"/><path class="st0" d="M168.8 140L139 170.2c-2.7 2.7-6.2 4.2-10 4.2s-7.3-1.5-10-4.2l-32.3-32.8v45.9h84.7v-41.5c-.9-.6-1.8-1.1-2.6-1.8zm13.3-36.2c-10.3 0-18.7 8.4-18.7 18.7 0 10.3 8.4 18.7 18.7 18.7 10.3 0 18.7-8.4 18.7-18.7 0-10.3-8.4-18.7-18.7-18.7zm8.4 20.8l2.3 1c.3.1.4.4.3.7l-.6 1.5c-.1.3-.4.4-.7.3l-2.3-1c-.7 1.2-1.7 2.1-2.8 2.8l1 2.3c.1.3 0 .6-.3.7l-1.5.6c-.3.1-.6 0-.7-.3l-1-2.3c-.7.2-1.3.2-2 .2s-1.3-.1-2-.2l-1 2.3c-.1.3-.4.4-.7.3l-1.5-.6c-.3-.1-.4-.4-.3-.7l1-2.3c-1.1-.7-2.1-1.6-2.8-2.8l-2.3 1c-.3.1-.6 0-.7-.3l-.6-1.5c-.1-.3 0-.6.3-.7l2.3-1c-.3-1.3-.3-2.7 0-4l-2.3-.9c-.3-.1-.4-.4-.3-.7l.6-1.5c.1-.3.4-.4.7-.3l2.3.9c.7-1.1 1.7-2.1 2.8-2.8l-.9-2.3c-.1-.3 0-.6.3-.7l1.5-.6c.3-.1.6 0 .7.3l.9 2.3c1.3-.3 2.7-.3 4 0l.9-2.3c.1-.3.4-.4.7-.3l1.5.6c.3.1.4.4.3.7l-1 2.3c1.1.7 2.1 1.7 2.8 2.8l2.3-1c.3-.1.6 0 .7.3l.6 1.5c.1.3 0 .6-.3.7l-2.3 1c.4 1.3.4 2.7.1 4zm-3.2-4.2c1.2 2.9-.2 6.2-3.1 7.4-2.9 1.2-6.2-.2-7.4-3.1-1.2-2.9.2-6.2 3.1-7.4.7-.3 1.4-.4 2.2-.4 2.2 0 4.3 1.3 5.2 3.5z"/></svg>