<svg xmlns="http://www.w3.org/2000/svg" version="1.1" id="Icons" x="0" y="0" width="46" height="50" viewBox="87 81 114 125" xml:space="preserve"><style>.st0{fill:#f80000}</style><path class="st0" d="M194.6 81.8H93.4c-3.5 0-6.3 2.8-6.3 6.3v54.3h18.2v-23.9c0-5.2 4.2-9.3 9.3-9.3h20.1c5.2 0 9.3 4.2 9.3 9.3v20.9l22.7-21.8-3-3.1 12.7-3.1-3.6 12.6-3-3.1-22.4 21.6h28.7v-4.4l11.3 6.5-11.3 6.5v-4.4h-28.7l22.4 21.6 3-3.1 3.6 12.6-12.7-3.1 3-3.1-22.7-21.8v20.9c0 5.2-4.2 9.3-9.3 9.3h-20.1c-5.2 0-9.3-4.2-9.3-9.3v-23.9H87.1v53c0 3.5 2.8 6.3 6.3 6.3h101.1c3.5 0 6.3-2.8 6.3-6.3V88.1c.1-3.4-2.8-6.3-6.2-6.3z"/><path class="st0" d="M109.8 146.8v23.9c0 2.7 2.2 5 5 5h20.1c2.7 0 5-2.2 5-5v-52.1c0-2.7-2.2-5-5-5h-20.1c-2.7 0-5 2.2-5 5v23.9h16.1v-4.4l11.3 6.5-11.3 6.5v-4.4h-16.1z"/></svg>