<svg xmlns="http://www.w3.org/2000/svg" version="1.1" id="Icons" x="0" y="0" width="50" height="50" viewBox="87 87 113 113" xml:space="preserve"><style>.st0{fill:#f80000}</style><path class="st0" d="M143.4 154.1c-.4.8-.9 1.5-1.5 2l6 15.2h.3c.9 0 1.8.3 2.6.7l14.7-14.3c-.2-.4-.4-.8-.5-1.3l-21.6-2.3zm-5.2 3.4c-2.2 0-4-1.2-5-3l-10.2 1.7c0 .3-.1.5-.2.8l21.6 15.2-5.8-14.7c-.2-.1-.3 0-.4 0zm-3.8-9.8l-8.6-18.7h-.2l-5.2 21.4c.9.5 1.6 1.3 2 2.2l10.2-1.7c.3-1.2.9-2.4 1.8-3.2zm3.8-1.5c.9 0 1.8.2 2.5.6l19.9-20c-.1-.3-.3-.6-.4-.9l-29.9-.6c-.3.9-.8 1.6-1.5 2.3l8.6 18.7c.4-.1.6-.1.8-.1zm25-16.9l-19.9 20c.2.4.4.9.5 1.4l21.7 2.3c.5-1.2 1.4-2.1 2.6-2.7l-3.2-20.4c-.7-.2-1.2-.4-1.7-.6z"/><path class="st0" d="M144 87.8c-31 0-56.2 25.2-56.2 56.2 0 31 25.2 56.2 56.2 56.2s56.2-25.2 56.2-56.2c0-31-25.2-56.2-56.2-56.2zm26.6 73.1c-.9 0-1.8-.3-2.6-.7l-14.7 14.3c.4.7.6 1.6.6 2.5 0 3.1-2.5 5.6-5.6 5.6s-5.6-2.5-5.6-5.6c0-.6.1-1.1.3-1.7l-22-15.5c-.9.7-2.1 1.1-3.4 1.1-3.1 0-5.6-2.5-5.6-5.6 0-3 2.3-5.4 5.2-5.6l5.2-21.4c-1.6-1-2.7-2.8-2.7-4.8 0-3.1 2.5-5.6 5.6-5.6 2.5 0 4.7 1.7 5.4 4l29.9.6c.8-2.2 2.8-3.8 5.3-3.8 3.1 0 5.6 2.5 5.6 5.6 0 2.2-1.3 4.1-3.1 5l3.2 20.4c2.7.4 4.7 2.7 4.7 5.6-.1 3.1-2.6 5.6-5.7 5.6z"/></svg>