<svg xmlns="http://www.w3.org/2000/svg" width="50" height="50" viewBox="90 89 110 110"><path d="M144.8 89.3c-30.2 0-54.7 24.5-54.7 54.7s24.5 54.7 54.7 54.7c30.2 0 54.7-24.5 54.7-54.7s-24.4-54.7-54.7-54.7zm40.8 55h-39.4v-7.5h32.7c3.1 1.8 5.4 4.4 6.7 7.5zM154.2 126h9.4c2.9 1.7 5.2 4.3 6.4 7.5h-15.8V126zm-16.6-8.4c4.7 0 8.9 2 12 5.1H125c3-3.3 7.4-5.1 12.6-5.1zm-12.8 8.4h26.1v7.5h-26.1V126zm-3.4 3.3v4.2h-9.5c2.7-2.1 5.9-3.6 9.5-4.2zm-12.8 7.5h34.2v7.5h-37.9c.7-2.7 2-5.3 3.7-7.5zm-3.7 18.3c-.5-1.6-.9-3.2-.9-5 0-.8.1-1.6.2-2.4h22.3v7.5h-21.6zm37.7 10.8h-23.9c-5.2-.6-9.6-3.4-12.2-7.5h36.1v7.5zm-12.7-10.8v-7.5H160v7.5h-30.1zm43.5 10.8H146v-7.5h38.1c-2.4 4-6.3 6.9-10.7 7.5zm-10.1-10.8v-7.5h23.1c.1.7.2 1.3.2 2 0 1.8-.4 3.7-1 5.5h-22.3z" fill="#f80000"/></svg>